<?xml version="1.0" encoding="UTF-8"?>
<!DOCTYPE svg PUBLIC "-//W3C//DTD SVG 1.1//EN" "http://www.w3.org/Graphics/SVG/1.1/DTD/svg11.dtd">
<svg xmlns="http://www.w3.org/2000/svg" version="1.1" width="868px" height="908px" style="shape-rendering:geometricPrecision; text-rendering:geometricPrecision; image-rendering:optimizeQuality; fill-rule:evenodd; clip-rule:evenodd" xmlns:xlink="http://www.w3.org/1999/xlink">
<g><path style="opacity:1" fill="#fefefe" d="M -0.5,-0.5 C 288.833,-0.5 578.167,-0.5 867.5,-0.5C 867.5,302.167 867.5,604.833 867.5,907.5C 578.167,907.5 288.833,907.5 -0.5,907.5C -0.5,604.833 -0.5,302.167 -0.5,-0.5 Z"/></g>
<g><path style="opacity:1" fill="#040404" d="M 774.5,243.5 C 773.5,356.665 773.167,469.999 773.5,583.5C 708.833,583.5 644.167,583.5 579.5,583.5C 579.5,470.167 579.5,356.833 579.5,243.5C 562.008,242.503 544.341,242.17 526.5,242.5C 526.5,356.167 526.5,469.833 526.5,583.5C 461.833,583.5 397.167,583.5 332.5,583.5C 332.5,470.167 332.5,356.833 332.5,243.5C 250.167,243.5 167.833,243.5 85.5,243.5C 85.5,166.167 85.5,88.8333 85.5,11.5C 315.167,11.5 544.833,11.5 774.5,11.5C 774.5,88.8333 774.5,166.167 774.5,243.5 Z"/></g>
<g><path style="opacity:1" fill="#636363" d="M 818.5,25.5 C 818.5,24.1667 818.5,22.8333 818.5,21.5C 812.167,21.5 805.833,21.5 799.5,21.5C 799.5,22.8333 799.5,24.1667 799.5,25.5C 798.549,24.0813 798.216,22.4147 798.5,20.5C 805.5,20.5 812.5,20.5 819.5,20.5C 819.784,22.4147 819.451,24.0813 818.5,25.5 Z"/></g>
<g><path style="opacity:1" fill="#000000" d="M 818.5,25.5 C 816.167,25.5 813.833,25.5 811.5,25.5C 811.5,32.8333 811.5,40.1667 811.5,47.5C 809.833,47.5 808.167,47.5 806.5,47.5C 806.5,40.1667 806.5,32.8333 806.5,25.5C 804.167,25.5 801.833,25.5 799.5,25.5C 799.5,24.1667 799.5,22.8333 799.5,21.5C 805.833,21.5 812.167,21.5 818.5,21.5C 818.5,22.8333 818.5,24.1667 818.5,25.5 Z"/></g>
<g><path style="opacity:1" fill="#909090" d="M 830.5,21.5 C 828.167,21.5 825.833,21.5 823.5,21.5C 823.5,30.1667 823.5,38.8333 823.5,47.5C 822.507,38.6822 822.173,29.6822 822.5,20.5C 825.385,20.1936 828.052,20.5269 830.5,21.5 Z"/></g>
<g><path style="opacity:1" fill="#090909" d="M 829.5,30.5 C 829.013,29.5266 828.513,28.5266 828,27.5C 827.5,34.1583 827.334,40.825 827.5,47.5C 826.167,47.5 824.833,47.5 823.5,47.5C 823.5,38.8333 823.5,30.1667 823.5,21.5C 825.833,21.5 828.167,21.5 830.5,21.5C 833.132,27.56 835.299,33.8933 837,40.5C 839.673,33.9809 841.84,27.3142 843.5,20.5C 846.167,20.5 848.833,20.5 851.5,20.5C 851.5,29.5 851.5,38.5 851.5,47.5C 849.833,47.5 848.167,47.5 846.5,47.5C 846.666,40.825 846.5,34.1583 846,27.5C 844,33.5 842,39.5 840,45.5C 838,48.1667 836,48.1667 834,45.5C 832.341,40.5273 830.841,35.5273 829.5,30.5 Z"/></g>
<g><path style="opacity:1" fill="#5d5d5d" d="M 829.5,30.5 C 828.833,36.1667 828.167,41.8333 827.5,47.5C 827.334,40.825 827.5,34.1583 828,27.5C 828.513,28.5266 829.013,29.5266 829.5,30.5 Z"/></g>
<g><path style="opacity:1" fill="#9e9e9e" d="M 579.5,243.5 C 562.167,243.5 544.833,243.5 527.5,243.5C 527.5,357.167 527.5,470.833 527.5,584.5C 462.331,584.832 397.331,584.499 332.5,583.5C 397.167,583.5 461.833,583.5 526.5,583.5C 526.5,469.833 526.5,356.167 526.5,242.5C 544.341,242.17 562.008,242.503 579.5,243.5 Z"/></g>
<g><path style="opacity:1" fill="#797979" d="M 774.5,243.5 C 774.5,357.167 774.5,470.833 774.5,584.5C 709.331,584.832 644.331,584.499 579.5,583.5C 644.167,583.5 708.833,583.5 773.5,583.5C 773.167,469.999 773.5,356.665 774.5,243.5 Z"/></g>
<g><path style="opacity:1" fill="#040404" d="M 85.5,293.5 C 150.167,293.5 214.833,293.5 279.5,293.5C 279.5,390.5 279.5,487.5 279.5,584.5C 214.833,584.5 150.167,584.5 85.5,584.5C 85.5,487.5 85.5,390.5 85.5,293.5 Z"/></g>
<g><path style="opacity:1" fill="#030303" d="M 143.5,626.5 C 157.618,625.817 171.285,627.984 184.5,633C 193.544,637.543 200.878,644.043 206.5,652.5C 199.482,658.848 192.149,664.848 184.5,670.5C 170.323,652.498 152.99,648.665 132.5,659C 126.951,665.946 127.284,672.613 133.5,679C 137.935,681.551 142.601,683.551 147.5,685C 162.684,688.128 177.35,692.794 191.5,699C 207.699,709.937 213.532,725.103 209,744.5C 207.082,758.172 199.916,768.005 187.5,774C 167.176,781.464 146.509,782.464 125.5,777C 112.675,772.665 102.675,764.831 95.5,753.5C 102.543,746.96 110.043,740.96 118,735.5C 129.474,751.553 144.974,757.386 164.5,753C 175.677,750.51 180.51,743.677 179,732.5C 177.939,729.438 176.106,726.938 173.5,725C 168.997,722.61 164.331,720.61 159.5,719C 144.618,716.029 130.285,711.363 116.5,705C 101.473,695.293 95.306,681.46 98,663.5C 100.523,649.605 108.023,639.438 120.5,633C 127.992,629.714 135.659,627.548 143.5,626.5 Z"/></g>
<g><path style="opacity:1" fill="#020202" d="M 409.5,626.5 C 450.062,622.835 474.229,640.835 482,680.5C 485.969,705.75 482.969,730.084 473,753.5C 463.314,768.763 449.481,777.597 431.5,780C 389.128,784.944 364.628,766.444 358,724.5C 353.276,699.298 356.61,675.298 368,652.5C 377.948,637.61 391.782,628.944 409.5,626.5 Z"/></g>
<g><path style="opacity:1" fill="#030303" d="M 559.5,626.5 C 578.38,625.042 596.047,628.875 612.5,638C 618.211,642.044 622.878,647.044 626.5,653C 619.26,659.409 611.593,665.242 603.5,670.5C 592.087,655.386 577.087,650.219 558.5,655C 544.804,660.523 536.97,670.689 535,685.5C 534.333,697.167 534.333,708.833 535,720.5C 539.425,746.899 554.925,757.732 581.5,753C 591.565,750.282 599.398,744.449 605,735.5C 612.667,741.167 620.333,746.833 628,752.5C 619.63,767.309 606.797,776.142 589.5,779C 569.166,783.121 549.833,780.455 531.5,771C 516.106,760.23 507.273,745.397 505,726.5C 502.298,706.297 503.298,686.297 508,666.5C 517.244,642.962 534.411,629.629 559.5,626.5 Z"/></g>
<g><path style="opacity:1" fill="#606060" d="M 343.5,630.5 C 303.5,630.5 263.5,630.5 223.5,630.5C 223.5,639.5 223.5,648.5 223.5,657.5C 222.506,648.348 222.173,639.015 222.5,629.5C 263.003,629.168 303.337,629.501 343.5,630.5 Z"/></g>
<g><path style="opacity:1" fill="#020202" d="M 343.5,630.5 C 343.5,639.5 343.5,648.5 343.5,657.5C 328.5,657.5 313.5,657.5 298.5,657.5C 298.5,697.5 298.5,737.5 298.5,777.5C 288.5,777.5 278.5,777.5 268.5,777.5C 268.5,737.5 268.5,697.5 268.5,657.5C 253.5,657.5 238.5,657.5 223.5,657.5C 223.5,648.5 223.5,639.5 223.5,630.5C 263.5,630.5 303.5,630.5 343.5,630.5 Z"/></g>
<g><path style="opacity:1" fill="#7a7a7a" d="M 681.5,686.5 C 680.501,668.577 680.168,649.91 680.5,630.5C 670.833,630.5 661.167,630.5 651.5,630.5C 651.5,679.5 651.5,728.5 651.5,777.5C 650.501,728.336 650.168,679.003 650.5,629.5C 660.833,629.5 671.167,629.5 681.5,629.5C 681.5,648.5 681.5,667.5 681.5,686.5 Z"/></g>
<g><path style="opacity:1" fill="#020202" d="M 651.5,777.5 C 651.5,728.5 651.5,679.5 651.5,630.5C 661.167,630.5 670.833,630.5 680.5,630.5C 680.168,649.91 680.501,668.577 681.5,686.5C 697.26,667.564 713.26,648.731 729.5,630C 741.167,629.333 752.833,629.333 764.5,630C 745.98,651.019 727.647,672.186 709.5,693.5C 728.972,721.472 748.639,749.305 768.5,777C 755.833,777.667 743.167,777.667 730.5,777C 717.372,756.575 703.872,736.408 690,716.5C 686.962,719.203 684.295,722.203 682,725.5C 681.5,742.83 681.333,760.163 681.5,777.5C 671.5,777.5 661.5,777.5 651.5,777.5 Z"/></g>
<g><path style="opacity:1" fill="#fdfdfd" d="M 411.5,653.5 C 433.662,650.475 446.828,659.808 451,681.5C 453.49,698.643 452.823,715.643 449,732.5C 446.265,742.902 439.765,749.736 429.5,753C 408.303,757.43 395.137,749.263 390,728.5C 386.689,711.161 386.689,693.828 390,676.5C 392.945,664.726 400.112,657.059 411.5,653.5 Z"/></g>
</svg>
